<svg xmlns="http://www.w3.org/2000/svg" width="233.248" height="227" viewBox="0 0 233.248 227">
    <path id="Subtraction_10" data-name="Subtraction 10" d="M-4182.855-2086h-15.169a7.585,7.585,0,0,1-7.587-7.565l-1.051-10.482a146.8,146.8,0,0,1-29.29,2.915,147.612,147.612,0,0,1-26.809-2.431l-1,10a7.586,7.586,0,0,1-7.589,7.565h-15.17a7.585,7.585,0,0,1-7.587-7.565l-2.094-20.917a105.322,105.322,0,0,1-17.208-10.554,85.156,85.156,0,0,1-13.7-12.927,63.761,63.761,0,0,1-8.943-3.556c-9.714-4.725-17.692-11.525-22.464-19.148s-5.772-15.155-2.812-21.21c3.3-6.744,11.169-10.772,21.6-11.052,3.681-12.081,11.6-23.463,22.911-32.916l-5.319-18.092c-.843-2.872-1.249-7.861,0-9.462.445-.572,1.486-.861,3.1-.861a27.162,27.162,0,0,1,6.059.861l31.807,8.117a139.438,139.438,0,0,1,33.49-6.728,31.519,31.519,0,0,1-3.437-14.329,31.279,31.279,0,0,1,9.259-22.292,31.445,31.445,0,0,1,22.346-9.233c.844,0,1.7.033,2.533.1A22.785,22.785,0,0,1-4195.5-2313a22.754,22.754,0,0,1,22.756,22.7,22.74,22.74,0,0,1-15.269,21.44c.067.846.1,1.7.1,2.522a31.073,31.073,0,0,1-6.961,19.741c19.054,5.7,35.273,15.181,46.9,27.411,11.915,12.532,18.213,27.189,18.213,42.387a55.436,55.436,0,0,1-3.072,18.14,63.624,63.624,0,0,1-8.725,16.555c-7.469,10.3-18.356,19.38-31.486,26.27l-2.232,22.269A7.585,7.585,0,0,1-4182.855-2086Zm-108.725-136.2a12.639,12.639,0,0,0-12.64,12.61,12.64,12.64,0,0,0,12.64,12.612,12.644,12.644,0,0,0,12.645-12.612A12.643,12.643,0,0,0-4291.581-2222.2Zm55.627-30.267a145.825,145.825,0,0,1,32.78,3.672,24.023,24.023,0,0,0,7.677-17.544,24.019,24.019,0,0,0-24.021-23.962,24.017,24.017,0,0,0-24.019,23.962,23.73,23.73,0,0,0,4.467,13.9C-4237.97-2252.456-4236.921-2252.466-4235.953-2252.466Zm40.452-55.489a17.651,17.651,0,0,0-16.4,11.012,31.542,31.542,0,0,1,14.727,8.311,31.435,31.435,0,0,1,8.333,14.688A17.606,17.606,0,0,0-4177.8-2290.3,17.7,17.7,0,0,0-4195.5-2307.955Z" transform="translate(4363.002 2313)"/>
</svg>
