<svg xmlns="http://www.w3.org/2000/svg" width="92.249" height="90" viewBox="0 0 92.249 90">
    <path id="piggy-bank" data-name="Subtraction 4" d="M-4291.756-2223h-6a3,3,0,0,1-3-3l-.416-4.156a57.922,57.922,0,0,1-11.584,1.156,58.247,58.247,0,0,1-10.6-.964l-.4,3.964a3,3,0,0,1-3,3h-6a3,3,0,0,1-3-3l-.828-8.293a41.62,41.62,0,0,1-6.806-4.184,33.72,33.72,0,0,1-5.418-5.125,25.185,25.185,0,0,1-3.537-1.41,21.6,21.6,0,0,1-8.885-7.592c-1.888-3.022-2.283-6.009-1.112-8.409,1.3-2.674,4.417-4.271,8.543-4.382a27.923,27.923,0,0,1,9.061-13.051l-2.1-7.173c-.333-1.139-.494-3.117,0-3.751.176-.227.588-.342,1.225-.342a10.722,10.722,0,0,1,2.4.341l12.58,3.218a55.025,55.025,0,0,1,13.245-2.667,12.519,12.519,0,0,1-1.359-5.681,12.415,12.415,0,0,1,3.662-8.838,12.421,12.421,0,0,1,8.838-3.661c.333,0,.67.013,1,.038a9.014,9.014,0,0,1,8.5-6.04,9.01,9.01,0,0,1,9,9,9.014,9.014,0,0,1-6.039,8.5c.027.335.041.672.041,1a12.339,12.339,0,0,1-2.753,7.827,42.064,42.064,0,0,1,18.55,10.868c4.712,4.969,7.2,10.78,7.2,16.805a22.036,22.036,0,0,1-1.215,7.192,25.262,25.262,0,0,1-3.451,6.564,35.953,35.953,0,0,1-12.453,10.416l-.883,8.829A3,3,0,0,1-4291.756-2223Zm-43-54a5,5,0,0,0-5,5,5.005,5.005,0,0,0,5,5,5.007,5.007,0,0,0,5-5A5.006,5.006,0,0,0-4334.756-2277Zm22-12a57.549,57.549,0,0,1,12.964,1.456,9.535,9.535,0,0,0,3.036-6.956,9.511,9.511,0,0,0-9.5-9.5,9.511,9.511,0,0,0-9.5,9.5,9.426,9.426,0,0,0,1.767,5.512C-4313.554-2289-4313.139-2289-4312.756-2289Zm16-22a6.98,6.98,0,0,0-6.485,4.366,12.466,12.466,0,0,1,5.824,3.295,12.473,12.473,0,0,1,3.3,5.823,6.981,6.981,0,0,0,4.364-6.485A7.008,7.008,0,0,0-4296.757-2311Z" transform="translate(4363.003 2313)"/>
  </svg>
